<svg width="56" height="57" viewBox="0 0 56 57" fill="none" xmlns="http://www.w3.org/2000/svg">
<g clip-path="url(#clip0_0_325)">
<rect y="0.996094" width="56" height="56" rx="28" fill="#FAFAFA"/>
<rect x="0.5" y="1.49609" width="55" height="55" rx="27.5" stroke="#87879D" stroke-opacity="0.25"/>
<path d="M23.4661 35.1561C22.7087 35.1561 22.0154 35.0174 21.3861 34.7401C20.7567 34.4628 20.2234 34.0734 19.7861 33.5721C19.3487 33.0708 19.0074 32.4628 18.7621 31.7481C18.5167 31.0334 18.3941 30.2441 18.3941 29.3801C18.3941 28.5161 18.5167 27.7321 18.7621 27.0281C19.0074 26.3134 19.3487 25.7054 19.7861 25.2041C20.2341 24.7028 20.7674 24.3134 21.3861 24.0361C22.0154 23.7588 22.7087 23.6201 23.4661 23.6201C24.2234 23.6201 24.9114 23.7588 25.5301 24.0361C26.1594 24.3134 26.6927 24.7028 27.1301 25.2041C27.5781 25.7054 27.9247 26.3134 28.1701 27.0281C28.4154 27.7321 28.5381 28.5161 28.5381 29.3801C28.5381 30.2441 28.4154 31.0334 28.1701 31.7481C27.9247 32.4628 27.5834 33.0708 27.1461 33.5721C26.7087 34.0734 26.1754 34.4628 25.5461 34.7401C24.9167 35.0174 24.2234 35.1561 23.4661 35.1561ZM23.4661 32.9161C24.2554 32.9161 24.8741 32.6014 25.3221 31.9721C25.7807 31.3428 26.0101 30.4788 26.0101 29.3801C26.0101 28.3028 25.7807 27.4494 25.3221 26.8201C24.8634 26.1801 24.2447 25.8601 23.4661 25.8601C22.6874 25.8601 22.0687 26.1801 21.6101 26.8201C21.1514 27.4494 20.9221 28.3028 20.9221 29.3801C20.9221 30.4788 21.1461 31.3428 21.5941 31.9721C22.0527 32.6014 22.6767 32.9161 23.4661 32.9161ZM29.3189 34.9961V33.1881L33.8149 29.2841C34.2203 28.9214 34.5136 28.5908 34.6949 28.2921C34.8869 27.9934 34.9829 27.6788 34.9829 27.3481C34.9829 26.9214 34.8123 26.5694 34.4709 26.2921C34.1296 26.0041 33.6976 25.8601 33.1749 25.8601C32.6523 25.8601 32.1616 25.9668 31.7029 26.1801C31.2549 26.3934 30.7589 26.7454 30.2149 27.2361L28.7749 25.5081C29.4469 24.9001 30.1616 24.4414 30.9189 24.1321C31.6869 23.8121 32.4709 23.6521 33.2709 23.6521C33.9003 23.6521 34.4763 23.7374 34.9989 23.9081C35.5216 24.0788 35.9643 24.3188 36.3269 24.6281C36.7003 24.9374 36.9883 25.3108 37.1909 25.7481C37.4043 26.1854 37.5109 26.6654 37.5109 27.1881C37.5109 27.8068 37.3456 28.3934 37.0149 28.9481C36.6949 29.4921 36.1669 30.0841 35.4309 30.7241L32.9669 32.8361H37.6229V34.9961H29.3189Z" fill="#87879D"/>
</g>
<defs>
<clipPath id="clip0_0_325">
<rect width="56" height="56" fill="white" transform="translate(0 0.996094)"/>
</clipPath>
</defs>
</svg>
